<?xml version="1.0" standalone="no"?><!DOCTYPE svg PUBLIC "-//W3C//DTD SVG 1.1//EN" "http://www.w3.org/Graphics/SVG/1.1/DTD/svg11.dtd"><svg t="1684746952349" class="icon" viewBox="0 0 1024 1024" version="1.1" xmlns="http://www.w3.org/2000/svg" p-id="925" xmlns:xlink="http://www.w3.org/1999/xlink" width="256" height="256"><path d="M628.82 754.4c-171.56 0-310.64-141.52-310.64-316.09a320.09 320.09 0 0 1 20.85-114c-85.74 56.22-142.51 154.25-142.51 265.79 0 174.57 139.07 316.09 310.63 316.09 132 0 244.83-83.84 289.79-202.05a305.31 305.31 0 0 1-168.12 50.26z" fill="#2CBF9C" p-id="926"></path><path d="M511 297.61a291.17 291.17 0 1 1-113.69 22.95A290.19 290.19 0 0 1 511 297.61m0-24c-174.57 0-316.09 141.52-316.09 316.09S336.43 905.8 511 905.8s316.09-141.52 316.09-316.1S685.57 273.61 511 273.61zM512 103.38v24a44.06 44.06 0 0 1 41.3 59.32 44 44 0 0 1-56.57 26.05 44.06 44.06 0 0 1-26.05-56.58A44.22 44.22 0 0 1 512 127.38v-24m0 0a68.07 68.07 0 1 0 23.57 4.23 68.06 68.06 0 0 0-23.57-4.23z" fill="" p-id="927"></path><path d="M202 582.37a12.16 12.16 0 0 1-3.3-0.46c-84.17-24-133.11-112-109.1-196.19a12 12 0 0 1 7.47-8l31.12-11.22a12 12 0 0 1 15.6 7.93 83 83 0 0 0 91.44 58.8 12 12 0 1 1 3.54 23.77 106.81 106.81 0 0 1-113.71-63.82l-13.88 5c-16.56 69.6 24.64 140.82 94.14 160.65a12 12 0 0 1-3.32 23.54zM856.42 693.23a12 12 0 0 1-6.33-22.2c51.28-31.79 81.9-86.5 81.9-146.36C932 415.74 867.26 345 767.08 344.36a12 12 0 0 1 0.07-24h0.07c55.77 0.33 103.15 19.83 137 56.38S956 464.45 956 524.67a195.31 195.31 0 0 1-25.65 96.77 198.42 198.42 0 0 1-67.61 70 11.91 11.91 0 0 1-6.32 1.79z" fill="" p-id="928"></path></svg>